<svg width="1280" height="73" viewBox="0 0 1280 73" fill="none" xmlns="http://www.w3.org/2000/svg">
<g filter="url(#filter0_d_0_357)">
<rect width="1280" height="64" fill="#414141"/>
</g>
<rect opacity="0.01" x="160" width="144" height="64" fill="#FF963C"/>
<g clip-path="url(#clip0_0_357)">
<path d="M191.865 27.5165H201.342V35.313H204.951V16.028H201.342V24.1552H191.865V16.028H188.228V35.313H191.865V27.5165Z" fill="#FF963C"/>
<path fill-rule="evenodd" clip-rule="evenodd" d="M213.693 35.6436C215.759 35.6436 218.101 34.9273 219.534 33.4395L217.385 31.3182C216.613 32.1173 214.988 32.5855 213.748 32.5855C211.379 32.5855 209.919 31.3735 209.698 29.6928H220.305C220.829 24.1002 217.991 21.29 213.445 21.29C209.037 21.29 206.227 24.2655 206.227 28.3979C206.227 32.7508 209.01 35.6436 213.693 35.6436ZM213.555 24.2655C215.484 24.2655 216.861 25.1471 217.082 26.9102H209.753C210.249 25.1471 211.737 24.2655 213.555 24.2655H213.555Z" fill="#FF963C"/>
<path fill-rule="evenodd" clip-rule="evenodd" d="M228.896 35.6983C230.411 35.6708 232.532 34.8992 233.304 33.3014L233.469 35.2851H236.637V21.7028H233.414L233.304 23.5762C232.532 22.2262 230.797 21.3722 228.979 21.3722C225.011 21.3446 221.898 23.7967 221.898 28.4801C221.898 33.2461 224.874 35.7259 228.896 35.6983L228.896 35.6983ZM229.281 24.3752C234.571 24.3752 234.571 32.6125 229.281 32.6125C227.05 32.6125 225.259 31.0699 225.259 28.4802C225.259 25.8904 227.05 24.3752 229.281 24.3752Z" fill="#FF963C"/>
<rect x="239.032" y="16.0276" width="3.33355" height="19.2575" fill="#FF963C"/>
<path d="M258.618 28.3424C258.618 26.3037 259.996 24.6232 261.979 24.6232C263.77 24.6232 265.065 25.6702 265.065 28.1495V35.285H268.426V28.1221C268.426 24.1273 266.718 21.5101 262.861 21.5101C261.318 21.5101 259.83 21.9784 258.618 23.5487V16H255.257V35.285H258.618V28.3424Z" fill="#FF963C"/>
<path d="M246.842 30.491C246.842 33.8798 248.77 35.5602 251.718 35.4501C252.737 35.4225 253.536 35.2572 254.501 34.8715L253.564 32.0062C253.068 32.2543 252.462 32.4196 251.938 32.4196C250.891 32.4196 250.175 31.7859 250.175 30.491V24.6228H253.95V21.7301H250.203V18.418H246.842V21.7301H244.307V24.6228H246.842L246.842 30.491Z" fill="#FF963C"/>
<path d="M281.449 21.372L277.771 29.6346L274.108 21.372H270.56L275.993 33.6288L268.36 50.7745L255.001 39.434L176 39.4407V42.5777L253.775 42.5792L269.533 55.9999L285 21.372H281.449Z" fill="#FF963C"/>
</g>
<rect opacity="0.01" x="1088" y="16" width="32" height="32" fill="#FF963C"/>
<path d="M1091 24H1117" stroke="#FF963C" stroke-width="3"/>
<path d="M1091 32H1117" stroke="#FF963C" stroke-width="3"/>
<path d="M1091 40H1117" stroke="#FF963C" stroke-width="3"/>
<g clip-path="url(#clip1_0_357)">
<rect opacity="0.01" x="592" y="8" width="160" height="48" fill="#FF963C"/>
<rect opacity="0.01" x="600" y="16" width="32" height="32" fill="#FF963C"/>
<path d="M629.549 26.6651L628.557 25.674C627.956 25.0721 626.981 25.0733 626.379 25.674L625.452 26.6025L628.621 29.7712L629.549 28.8438C630.15 28.242 630.15 27.267 629.549 26.6651H629.549Z" fill="#FF963C"/>
<path d="M616.76 35.2868V38.4561H619.929L627.757 30.6284L624.588 27.459L616.76 35.2868Z" fill="#FF963C"/>
<rect x="609.347" y="25.9344" width="8.9516" height="1.49193" fill="#FF963C"/>
<rect x="609.347" y="31.3984" width="8.9516" height="1.49193" fill="#FF963C"/>
<rect x="609.366" y="36.8626" width="5.47042" height="1.49193" fill="#FF963C"/>
<path d="M622.586 42.5985C622.586 42.826 622.403 43.0117 622.177 43.0129H605.367C605.141 43.0117 604.96 42.826 604.958 42.5985V21.4026C604.96 21.1741 605.141 20.9883 605.367 20.9872H622.177C622.403 20.9883 622.586 21.1741 622.586 21.4026V27.3897L624.544 25.4025V21.4026C624.543 20.0759 623.486 19.0011 622.177 19H605.367C604.059 19.0011 603.001 20.0759 603 21.4026V42.5985C603.001 43.9252 604.059 44.9989 605.367 45H622.177C623.486 44.9989 624.543 44.7748 624.544 43.4482V35.9488L622.586 37.9359V42.5985Z" fill="#FF963C"/>
<path d="M644.544 26.752C643.68 26.752 643.2 26.736 642.656 26.672C642.72 27.232 642.736 27.712 642.736 28.656V37.152C642.736 38.064 642.704 38.56 642.64 39.024H643.744V38.08H652.192V39.024H653.312C653.232 38.576 653.216 38.144 653.216 37.168V28.656C653.216 27.664 653.232 27.2 653.296 26.672C652.736 26.736 652.256 26.752 651.36 26.752H647.504C647.824 26.16 648.08 25.584 648.416 24.72L647.264 24.512C647.056 25.36 646.832 25.952 646.4 26.752H644.544ZM643.744 27.696H652.208V30.144H643.744V27.696ZM643.744 31.072H652.208V33.6H643.744V31.072ZM643.744 34.528H652.208V37.136H643.744V34.528ZM662.272 31.408C662.16 32.816 661.936 33.696 661.408 34.704C660.64 36.16 659.424 37.216 657.376 38.208C657.712 38.528 657.872 38.736 658.08 39.104C660.032 38.096 661.28 37.008 662.112 35.616C662.848 34.368 663.216 33.168 663.36 31.408H667.088C667.088 34.176 666.896 36.352 666.56 37.328C666.448 37.632 666.272 37.728 665.76 37.728C665.184 37.728 664.384 37.632 663.504 37.456C663.664 37.92 663.712 38.16 663.76 38.592C664.768 38.688 665.328 38.72 665.856 38.72C666.784 38.72 667.168 38.56 667.44 38.08C667.856 37.328 668.16 34.624 668.16 31.52C668.176 30.8 668.176 30.672 668.224 30.384C667.76 30.448 667.28 30.464 666.544 30.464H661.28C660.624 30.464 660.08 30.432 659.616 30.368V31.504C660.112 31.44 660.656 31.408 661.264 31.408H662.272ZM661.616 24.768C661.536 25.248 661.328 25.744 660.928 26.448C659.856 28.368 658.48 29.84 656.544 31.136C656.912 31.44 657.12 31.68 657.328 32C659.584 30.336 661.136 28.48 662.368 26C662.608 25.504 662.672 25.376 662.816 25.184L661.616 24.768ZM665.168 25.216C665.248 25.344 665.344 25.52 665.424 25.664C666.928 28.608 668.288 30.224 670.816 32.096C671.056 31.68 671.264 31.408 671.568 31.12C669.376 29.68 668.016 28.24 666.848 26.144C666.512 25.536 666.368 25.216 666.24 24.8L665.168 25.216ZM680.864 27.392C681.664 27.424 682.128 27.536 682.72 27.792C684.336 28.512 685.264 29.984 685.264 31.808C685.264 33.776 684.192 35.488 682.432 36.288C681.68 36.64 680.928 36.848 679.76 37.04C680.064 37.424 680.16 37.584 680.32 38.112C681.424 37.872 682.032 37.68 682.752 37.376C685.072 36.384 686.416 34.336 686.416 31.856C686.416 30.32 685.872 28.928 684.864 27.952C683.824 26.928 682.256 26.368 680.464 26.368C678.32 26.368 676.576 27.088 675.296 28.496C674.224 29.696 673.616 31.28 673.616 32.912C673.616 35.152 674.752 36.816 676.272 36.816C677.424 36.816 678.368 35.856 679.296 33.744C680.016 32.064 680.624 29.616 680.864 27.392ZM679.712 27.408C679.504 29.456 678.912 31.824 678.256 33.328C677.568 34.896 676.928 35.648 676.256 35.648C675.392 35.648 674.72 34.464 674.72 32.928C674.72 30.944 675.712 29.136 677.328 28.16C678.064 27.712 678.752 27.488 679.712 27.408ZM689.52 26.272C689.904 26.224 690.224 26.208 690.736 26.208H693.248C693.76 26.208 694.112 26.224 694.464 26.272V25.264C694.064 25.328 693.824 25.344 693.248 25.344H690.736C690.16 25.344 689.904 25.328 689.52 25.264V26.272ZM688.96 28.528C689.344 28.48 689.68 28.464 690.24 28.464H693.936C694.512 28.464 694.784 28.48 695.104 28.528V27.488C694.768 27.552 694.48 27.568 693.824 27.568H690.24C689.632 27.568 689.328 27.552 688.96 27.488V28.528ZM689.584 30.768C689.92 30.72 690.208 30.704 690.736 30.704H693.392C693.904 30.704 694.144 30.72 694.528 30.768V29.776C694.224 29.824 693.936 29.84 693.392 29.84H690.736C690.176 29.84 689.92 29.824 689.584 29.776V30.768ZM689.584 32.96C689.92 32.912 690.224 32.896 690.736 32.896H693.392C693.904 32.896 694.096 32.912 694.528 32.96V31.968C694.208 32.016 693.952 32.032 693.392 32.032H690.736C690.176 32.032 689.92 32.016 689.584 31.968V32.96ZM690.704 39.264V38.256H693.584V39.056H694.576C694.528 38.672 694.496 38.24 694.496 37.792V35.488C694.496 34.896 694.512 34.592 694.544 34.24C694.256 34.288 694.08 34.288 693.392 34.288H690.96C690.464 34.288 690.096 34.272 689.68 34.224C689.744 34.64 689.76 35.008 689.76 35.552V37.712C689.76 38.368 689.728 38.8 689.664 39.264H690.704ZM690.688 35.104H693.584V37.424H690.688V35.104ZM696.896 31.408H700.832C701.504 31.408 701.904 31.424 702.4 31.472C702.352 31.04 702.336 30.624 702.336 29.984V26.944C702.336 26.064 702.352 25.792 702.384 25.376C701.92 25.424 701.536 25.44 700.864 25.44H696.992C696.432 25.44 695.968 25.408 695.52 25.344V26.464C695.952 26.4 696.336 26.384 696.992 26.384H701.328V30.496H697.312C696.656 30.496 696.224 30.48 695.76 30.432C695.824 30.88 695.84 31.216 695.84 31.968V37.344C695.84 38.064 696.016 38.336 696.512 38.496C696.992 38.624 697.76 38.688 699.136 38.688C701.36 38.688 702.144 38.544 702.528 38.032C702.864 37.6 703.056 36.784 703.232 35.232C702.912 35.152 702.512 34.96 702.16 34.752C702.08 36.272 701.92 37.088 701.68 37.344C701.376 37.632 700.848 37.712 699.184 37.712C698.272 37.712 697.584 37.68 697.312 37.616C696.976 37.536 696.896 37.44 696.896 37.12V31.408ZM714.32 37.84C714.32 38.16 714.192 38.24 713.648 38.24C713.232 38.24 712.72 38.192 712.144 38.096C712.256 38.432 712.32 38.688 712.352 39.104C713.024 39.152 713.504 39.168 713.84 39.168C714.912 39.168 715.248 38.88 715.248 37.968V35.552C715.248 34.656 715.216 34.048 715.152 32.592C715.552 33.952 715.808 34.544 716.352 35.424C717.104 36.624 717.84 37.408 719.008 38.272C719.216 37.904 719.424 37.632 719.696 37.392C718.416 36.576 717.6 35.776 716.8 34.56C717.504 33.904 718.128 33.2 718.992 32.048L718.16 31.488C717.632 32.4 717.136 33.056 716.368 33.808C715.808 32.768 715.568 32.08 715.264 30.784V30.736H717.856C718.528 30.736 718.928 30.752 719.344 30.816V29.792C718.912 29.856 718.48 29.888 717.84 29.888H717.488C717.6 28.512 717.648 27.776 717.696 26.944C717.776 25.632 717.776 25.632 717.84 25.28C717.392 25.328 716.976 25.344 716.288 25.344H712.832C712.128 25.344 711.744 25.328 711.312 25.264V26.272C711.728 26.208 712.144 26.192 712.832 26.192H716.8C716.768 26.96 716.752 27.12 716.736 27.6H713.136C712.464 27.6 712.144 27.584 711.76 27.52V28.496C712.192 28.432 712.496 28.416 713.136 28.416H716.672C716.624 29.088 716.624 29.12 716.544 29.888H712.048C711.44 29.888 711.008 29.856 710.592 29.792V30.816C710.976 30.752 711.376 30.736 712.048 30.736H714.32V34.4C713.024 35.424 711.584 36.352 710.512 36.816L710.48 36.08C709.6 36.432 709.28 36.544 708.576 36.768V32.096H709.248C709.872 32.096 710.256 32.112 710.656 32.176V31.168C710.24 31.232 709.872 31.248 709.248 31.248H708.576V29.584H709.12C709.584 29.584 709.84 29.6 710.192 29.648V28.704C709.872 28.752 709.584 28.768 709.12 28.768H707.152C706.72 28.768 706.368 28.752 706.096 28.704C707.056 27.728 707.616 26.896 708.208 25.664C708.88 26.96 709.344 27.6 710.464 28.656C710.656 28.304 710.784 28.128 711.04 27.824C709.952 26.976 709.344 26.208 708.72 24.88H707.584C707.04 26.384 706.08 27.648 704.704 28.688C705.024 28.992 705.056 29.04 705.28 29.472C705.664 29.136 705.808 29.008 706.08 28.736V29.648C706.448 29.6 706.736 29.584 707.12 29.584H707.664V31.248H706.576C705.904 31.248 705.488 31.232 705.072 31.168V32.176C705.52 32.112 705.92 32.096 706.56 32.096H707.664V37.024C706.416 37.36 705.648 37.52 704.976 37.552L705.184 38.624C705.456 38.528 705.632 38.48 706.144 38.352C708.016 37.872 708.96 37.568 710.528 36.96L710.944 37.76C711.152 37.632 711.152 37.632 711.424 37.456C712.72 36.624 712.72 36.624 713.008 36.416C713.456 36.096 713.776 35.856 714.32 35.424V37.84ZM706.912 36.192C706.688 34.816 706.512 34.064 706.16 32.944L705.376 33.2C705.76 34.448 705.904 35.104 706.08 36.48L706.912 36.192ZM709.856 35.808C710.208 34.832 710.4 34.144 710.624 33.072L709.824 32.768C709.696 33.856 709.52 34.544 709.136 35.552L709.856 35.808ZM711.264 31.872C711.904 32.832 712.208 33.44 712.608 34.496L713.392 34C712.992 33.088 712.72 32.592 712.032 31.504L711.264 31.872Z" fill="#FF963C"/>
</g>
<g clip-path="url(#clip2_0_357)">
<rect opacity="0.01" x="752" y="8" width="160" height="48" fill="#FF963C"/>
<rect opacity="0.01" x="760" y="16" width="32" height="32" fill="#FF963C"/>
<g clip-path="url(#clip3_0_357)">
<path d="M771.252 30.468L770.44 31.0223C770.959 31.7839 771.622 32.4266 772.381 32.9232L772.919 32.0993C772.267 31.6732 771.698 31.1201 771.252 30.468Z" fill="#FF963C"/>
<path d="M774.786 21.7152C775.198 21.6292 775.606 21.588 776.01 21.588C776.381 21.588 776.747 21.6221 777.103 21.6892L777.285 20.7229C776.868 20.6453 776.442 20.604 776.01 20.604C775.54 20.604 775.062 20.6523 774.586 20.7512L774.567 20.7559L774.77 21.7175L774.786 21.7152Z" fill="#FF963C"/>
<path d="M772.818 22.4669L772.262 21.656C771.502 22.1761 770.86 22.8389 770.364 23.598L771.188 24.1359C771.613 23.4838 772.166 22.913 772.818 22.4669Z" fill="#FF963C"/>
<path d="M770.274 27.2433C770.274 26.8714 770.309 26.5042 770.376 26.1452L769.41 25.964C769.331 26.3818 769.29 26.8091 769.29 27.2433C769.29 27.7141 769.338 28.1908 769.438 28.6686L769.441 28.6804L770.403 28.4791L770.401 28.4686C770.315 28.0566 770.274 27.647 770.274 27.2433V27.2433Z" fill="#FF963C"/>
<path d="M777.214 32.8912C776.802 32.9772 776.394 33.0183 775.99 33.0183C775.616 33.0183 775.246 32.9831 774.886 32.9147L774.704 33.881C775.123 33.9599 775.554 34.0011 775.99 34.0011C776.46 34.0011 776.937 33.9528 777.414 33.854L777.42 33.8527L777.22 32.89L777.214 32.8912Z" fill="#FF963C"/>
<path d="M782.561 25.8367L782.557 25.813L781.594 26.0166L781.599 26.0378C781.685 26.4486 781.726 26.8581 781.726 27.2618C781.726 27.6385 781.689 28.0093 781.621 28.3706L782.587 28.5542C782.667 28.1328 782.708 27.7008 782.708 27.2618C782.708 26.7922 782.662 26.3144 782.561 25.8367V25.8367Z" fill="#FF963C"/>
<path d="M779.173 32.0415L779.727 32.8536C780.489 32.3346 781.133 31.672 781.629 30.9139L780.807 30.375C780.379 31.027 779.826 31.5956 779.173 32.0415L779.173 32.0415Z" fill="#FF963C"/>
<path d="M780.742 24.0249L781.553 23.4693C781.032 22.709 780.368 22.0664 779.609 21.572L779.072 22.3959C779.725 22.8208 780.295 23.3728 780.742 24.0249Z" fill="#FF963C"/>
<path d="M779.372 26.14L777.042 25.8015L776 23.69L774.958 25.8015L772.627 26.14L774.313 27.7838L773.915 30.1044L776 29.0087L778.084 30.1044L777.686 27.7838L779.372 26.14Z" fill="#FF963C"/>
<path fill-rule="evenodd" clip-rule="evenodd" d="M786.113 27.5726C786.113 24.6561 784.979 22.0056 783.152 20.0953C782.162 19.0608 780.966 18.2393 779.634 17.7037C778.505 17.2483 777.28 17 776.001 17C774.712 17 773.475 17.2529 772.339 17.7156C771.017 18.2522 769.832 19.0679 768.849 20.0953C767.022 22.0056 765.888 24.6561 765.888 27.5726C765.888 30.4879 767.022 33.1361 768.849 35.0463C770.676 36.9589 773.211 38.144 776.001 38.144C778.79 38.144 781.325 36.9589 783.152 35.0463C784.979 33.1361 786.113 30.4879 786.113 27.5726ZM776.001 36.1774C773.725 36.1774 771.673 35.217 770.18 33.6575C768.689 32.0957 767.769 29.9524 767.769 27.5726C767.769 25.1929 768.689 23.046 770.18 21.4877C771.153 20.4719 772.362 19.7094 773.719 19.3009C774.442 19.0856 775.208 18.9679 776.001 18.9679C776.781 18.9679 777.536 19.0796 778.251 19.2938C779.619 19.6975 780.841 20.465 781.821 21.4877C783.312 23.046 784.232 25.1929 784.232 27.5726C784.232 29.9524 783.312 32.0957 781.821 33.6575C780.327 35.217 778.277 36.1774 776.001 36.1774H776.001Z" fill="#FF963C"/>
<path d="M768.737 36.2418C768.584 36.1181 768.43 35.9957 768.282 35.8639L768.281 35.8675L768.269 35.858L764.605 43.7048L764.5 43.9861L764.639 44.2061C764.739 44.3592 764.901 44.4499 765.083 44.4499H765.168L768.67 43.3612L770.055 46.6755C770.141 46.8708 770.327 47.0003 770.543 47.0003C770.747 47.0003 770.933 46.8803 771.019 46.6943L773.853 40.6259L774.69 38.8429L774.687 38.8416L774.693 38.8275C772.461 38.5097 770.422 37.587 768.737 36.2418L768.737 36.2418Z" fill="#FF963C"/>
<path d="M784.554 37.6375L783.731 35.8686L783.728 35.8709L783.722 35.858C782.074 37.3092 780.033 38.3249 777.79 38.7357C777.632 38.764 777.476 38.7958 777.316 38.8169L777.317 38.8204L777.303 38.824L780.976 46.6943C781.062 46.8814 781.248 47.0003 781.453 47.0003C781.668 47.0003 781.854 46.8708 781.94 46.6755L783.325 43.3612L786.76 44.4262L786.841 44.4499H786.913C787.094 44.4499 787.256 44.3592 787.356 44.2062L787.5 43.9391L784.554 37.6375Z" fill="#FF963C"/>
</g>
<path d="M812.224 25.36C811.712 25.68 811.296 25.856 810.4 26.128C808.352 26.736 805.728 27.136 803.68 27.136C803.44 27.136 803.2 27.136 802.752 27.104C802.992 27.616 803.04 27.76 803.136 28.176C805.488 28.08 806.864 27.936 807.872 27.728C807.872 29.136 807.856 30.032 807.824 30.736H803.232C802.32 30.736 802.08 30.72 801.552 30.624V31.84C802.128 31.776 802.416 31.76 803.232 31.76H807.728C807.616 33.136 807.344 34.016 806.752 34.896C805.968 36.08 804.752 36.976 803.008 37.648C803.44 38 803.584 38.16 803.872 38.64C805.824 37.696 807.024 36.688 807.856 35.296C808.464 34.288 808.768 33.264 808.896 31.76H812.816C813.632 31.76 813.92 31.776 814.496 31.84V30.624C813.968 30.72 813.728 30.736 812.816 30.736H808.976C808.992 30.112 809.008 29.072 809.024 27.536C810.288 27.28 811.376 26.96 812.544 26.544C812.848 26.432 812.848 26.432 813.04 26.384L812.224 25.36ZM821.44 30.688L819.904 30.944C819.232 31.056 818.928 31.088 818.416 31.088L818.64 32.224C819.056 32.08 819.36 32 820.032 31.904L821.616 31.632L822.736 37.696C822.848 38.256 822.88 38.592 822.88 38.976L824.112 38.752C823.968 38.368 823.968 38.368 823.808 37.488L822.656 31.472L827.424 30.688C827.664 30.64 827.664 30.64 827.84 30.592C827.808 30.656 827.792 30.688 827.776 30.736C827.088 32.144 826.288 32.992 824.88 33.808C825.296 34.048 825.44 34.16 825.744 34.496C827.2 33.504 828.16 32.352 828.848 30.736C829.008 30.352 829.072 30.24 829.216 30.032L828.544 29.44C828.352 29.536 828.208 29.568 827.856 29.632L822.48 30.512L822.224 29.136C822.064 28.304 822.048 28.256 822.048 27.936L820.88 28.112C821.024 28.448 821.024 28.48 821.184 29.28L821.44 30.688ZM835.648 25.712C835.68 26.064 835.696 26.256 835.696 26.576V27.168L835.664 36.336C835.664 36.928 835.632 37.104 835.552 37.376L836.192 38.176C836.416 38.08 836.496 38.064 837.12 37.936C841.392 37.104 843.744 35.616 845.936 32.352C845.552 32.032 845.456 31.904 845.056 31.344C844.128 33.04 843.056 34.192 841.456 35.184C840.176 35.984 838.72 36.48 836.88 36.784L836.928 27.136C836.928 26.464 836.96 26.048 837.008 25.712H835.648ZM849.543 27.552C850.935 28.4 852.199 29.44 853.351 30.688L854.183 29.696C853.031 28.56 852.039 27.776 850.327 26.688L849.543 27.552ZM849.655 37.952C850.055 37.824 850.183 37.792 850.615 37.696C853.287 37.088 854.935 36.432 856.583 35.312C858.695 33.856 860.183 31.984 861.463 29.2C861.015 28.896 860.855 28.752 860.487 28.256C859.191 31.648 857.047 34 853.959 35.376C852.471 36.064 850.551 36.56 849.303 36.608L849.655 37.952ZM866.503 26.72C867.415 26.992 869.543 28.144 870.439 28.848L871.095 27.776C869.847 26.992 868.583 26.352 867.127 25.76L866.503 26.72ZM865.239 30.56C866.535 31.024 868.375 32.016 869.319 32.752L869.943 31.664C868.679 30.864 867.271 30.144 865.879 29.584L865.239 30.56ZM865.783 38.208C866.023 38.128 866.055 38.128 866.407 38.048C872.167 36.96 875.463 34.448 877.479 29.6C877.063 29.312 876.871 29.152 876.487 28.736C875.335 32.128 872.855 34.768 869.767 35.904C868.263 36.48 866.471 36.896 865.559 36.896C865.527 36.896 865.495 36.896 865.463 36.896L865.783 38.208ZM874.711 25.44C875.175 25.952 875.943 27.136 876.343 27.984L877.143 27.504C876.663 26.56 876.215 25.888 875.511 25.024L874.711 25.44ZM876.519 24.592C877.143 25.312 877.815 26.352 878.167 27.104L878.967 26.64C878.439 25.632 878.039 25.04 877.303 24.16L876.519 24.592Z" fill="white"/>
</g>
<g clip-path="url(#clip4_0_357)">
<rect opacity="0.01" x="912" y="8" width="160" height="48" fill="#FF963C"/>
<rect opacity="0.01" x="920" y="16" width="32" height="32" fill="#FF963C"/>
<path fill-rule="evenodd" clip-rule="evenodd" d="M948.5 41.2975H936.072L928.072 47V41.2975H923.5V19H948.5V41.2975H948.5ZM946.214 21.2719H925.786V39.0256H930.358V42.5755L935.337 39.0256H946.214V21.2719ZM937.363 29.391V35.9249H934.734V29.391H937.363ZM936.048 27.4314C936.955 27.4314 937.691 26.6998 937.691 25.798C937.691 24.896 936.955 24.1644 936.048 24.1644C935.141 24.1644 934.404 24.896 934.404 25.798C934.404 26.6998 935.141 27.4314 936.048 27.4314Z" fill="#FF963C"/>
<path d="M969.392 27.456C968.512 27.76 967.504 27.968 966.128 28.144V26.608C966.128 25.872 966.144 25.568 966.208 25.12H965.024C965.088 25.6 965.104 26 965.104 26.64V28.224C964.624 28.256 964 28.272 963.568 28.272C962.848 28.272 962.4 28.24 961.936 28.16V29.216C962.064 29.216 962.16 29.216 962.224 29.216C962.272 29.216 962.4 29.216 962.592 29.216C962.768 29.232 963.2 29.232 963.44 29.232C963.904 29.232 964.176 29.232 964.464 29.216C964.96 29.184 964.96 29.184 965.104 29.168V32.192C964.096 32.624 963.44 33.008 962.848 33.504C961.984 34.24 961.584 34.928 961.584 35.632C961.584 36.208 961.824 36.704 962.32 37.136C963.024 37.76 964.064 38.16 964.96 38.16C965.744 38.16 966.128 37.744 966.128 36.88V32.88C967.472 32.448 968.496 32.256 969.52 32.256C971.616 32.256 972.944 33.232 972.944 34.8C972.944 36.112 972.048 37.056 970.8 37.056C969.632 37.056 969.152 36.368 969.152 34.704C969.152 34.512 969.152 34.368 969.184 34.08C968.784 34.304 968.624 34.368 968.128 34.496C968.112 35.296 968.176 35.776 968.32 36.304C968.624 37.456 969.52 38.112 970.784 38.112C972.624 38.112 974.048 36.672 974.048 34.8C974.048 33.616 973.456 32.592 972.4 31.968C971.664 31.52 970.704 31.296 969.568 31.296C968.496 31.296 967.52 31.456 966.128 31.872V29.104C966.88 29.024 967.648 28.896 968.96 28.624C969.184 28.576 969.248 28.56 969.44 28.528L969.392 27.456ZM965.104 36.288C965.104 36.976 965.056 37.072 964.736 37.072C964.32 37.072 963.744 36.88 963.312 36.608C962.848 36.304 962.624 35.984 962.624 35.648C962.624 34.88 963.52 34.016 965.104 33.248V36.288ZM974.72 29.52C973.76 28.288 972.96 27.52 971.488 26.48L970.656 27.104C971.904 27.952 973.04 29.056 973.888 30.24L974.72 29.52ZM980.352 27.84C980.336 29.616 980.32 29.952 980.256 30.832H978.736C977.888 30.832 977.488 30.816 977.008 30.736V31.856C977.504 31.776 977.92 31.76 978.704 31.76H980.16C979.84 34.544 978.912 36.144 976.72 37.696C977.088 37.968 977.264 38.144 977.52 38.528C979.28 37.12 980.144 35.872 980.72 33.92C981.696 35.552 982.208 36.192 983.408 37.312C983.616 36.88 983.76 36.656 984.048 36.352C982.64 35.28 981.92 34.416 981.008 32.704C981.072 32.32 981.088 32.128 981.136 31.76H982.576C983.2 31.76 983.696 31.792 984.096 31.856V30.736C983.712 30.8 983.232 30.832 982.576 30.832H981.216C981.296 29.76 981.296 29.568 981.328 27.84H982.352C982.896 27.84 983.424 27.872 983.92 27.92V26.816C983.552 26.88 983.136 26.912 982.352 26.912H979.456C979.648 26.432 979.744 26.128 979.872 25.648C980.016 25.168 980.048 25.04 980.144 24.784L979.056 24.608C979.056 24.848 979.008 25.072 978.912 25.488C978.496 27.168 977.904 28.288 976.784 29.488C977.184 29.728 977.328 29.856 977.568 30.192C978.32 29.232 978.592 28.784 979.056 27.84H980.352ZM985.632 37.456H989.504V38.592H990.624C990.56 38.128 990.528 37.408 990.528 36.656V27.888C990.528 27.136 990.544 26.688 990.608 26.208C990.16 26.272 989.84 26.288 989.168 26.288H985.968C985.28 26.288 984.976 26.272 984.528 26.208C984.592 26.752 984.624 27.28 984.624 27.888V36.768C984.624 37.472 984.592 38.144 984.528 38.592H985.632V37.456ZM985.632 27.216H989.504V36.528H985.632V27.216ZM997.088 26.4C998.512 27.056 998.512 27.056 999.536 27.408C1000.61 27.792 1000.61 27.792 1002.66 28.32L1003.1 27.2C1001.36 26.928 998.928 26.128 997.68 25.424L997.088 26.4ZM995.76 28.128C995.744 28.416 995.728 28.544 995.648 28.976C995.424 30.32 995.136 32.176 994.976 33.392C994.912 33.904 994.896 34.048 994.848 34.336L996.096 34.368C996.368 34.016 996.48 33.904 996.736 33.712C997.936 32.832 999.584 32.32 1001.22 32.32C1003.17 32.32 1004.32 33.088 1004.32 34.4C1004.32 36.032 1002.64 37.088 1000 37.088C998.656 37.088 997.136 36.784 995.92 36.288C996.016 36.704 996.032 36.912 996.032 37.28C996.032 37.344 996.032 37.44 996.016 37.584C996.992 37.824 996.992 37.824 997.296 37.904C998.176 38.096 999.136 38.192 1000.1 38.192C1001.79 38.192 1003.06 37.856 1004.08 37.136C1004.98 36.496 1005.52 35.456 1005.52 34.384C1005.52 32.512 1003.84 31.296 1001.23 31.296C999.472 31.296 997.712 31.824 996.608 32.672C996.432 32.816 996.32 32.928 996.112 33.152L996.08 33.136C996.112 32.992 996.128 32.96 996.144 32.768C996.192 32.4 996.224 32.288 996.608 29.968C996.752 29.088 996.832 28.704 996.976 28.208L995.76 28.128ZM1012.1 25.824C1012.16 26.256 1012.18 26.72 1012.18 28.208C1012.18 28.608 1012.18 28.752 1012.18 29.248C1010.5 29.392 1009.5 29.456 1009.22 29.456C1009.15 29.456 1009.02 29.456 1008.86 29.44L1008.96 30.56C1009.7 30.432 1010.59 30.336 1012.18 30.224C1012.18 30.784 1012.18 32.128 1012.18 32.224C1012.18 34.512 1012.22 35.44 1012.38 36.016C1012.8 37.456 1014.02 38 1016.86 38C1018.1 38 1019.42 37.888 1020.91 37.664C1021.3 37.616 1021.33 37.6 1021.55 37.584L1021.42 36.352C1020.4 36.72 1018.72 36.944 1016.98 36.944C1015.95 36.944 1014.98 36.848 1014.48 36.672C1013.86 36.48 1013.55 36.176 1013.41 35.632C1013.3 35.168 1013.25 34.064 1013.25 31.6C1013.25 31.392 1013.25 31.104 1013.25 30.832C1013.25 30.608 1013.25 30.448 1013.25 30.384C1013.25 30.32 1013.25 30.256 1013.25 30.16C1015.38 30.016 1016.53 29.952 1018.46 29.888C1018.43 31.12 1018.4 31.648 1018.27 32.352C1018.13 33.136 1017.94 33.392 1017.49 33.392C1017.02 33.392 1016.27 33.088 1015.39 32.512C1015.41 32.832 1015.42 32.992 1015.42 33.168C1015.42 33.328 1015.41 33.408 1015.39 33.648C1016.35 34.176 1016.99 34.384 1017.62 34.384C1018.45 34.384 1018.98 33.92 1019.23 32.976C1019.39 32.336 1019.5 31.216 1019.52 29.856C1020.03 29.856 1020.38 29.84 1020.64 29.84C1021.17 29.824 1021.58 29.824 1021.73 29.824C1022.4 29.824 1022.5 29.824 1022.93 29.856L1022.9 28.72C1022.37 28.784 1021.12 28.832 1019.55 28.864V28.432L1019.57 27.392V26.72C1019.57 26.208 1019.58 25.808 1019.63 25.488H1018.4C1018.48 25.984 1018.5 26.464 1018.5 27.92C1018.5 28.112 1018.5 28.288 1018.48 28.464C1018.48 28.576 1018.48 28.656 1018.48 28.704C1018.48 28.752 1018.48 28.816 1018.48 28.912C1016.48 28.992 1015.84 29.024 1013.25 29.168C1013.3 26.336 1013.3 26.336 1013.39 25.824H1012.1Z" fill="white"/>
<circle cx="952" cy="24" r="8" fill="#EA6C00"/>
<g clip-path="url(#clip5_0_357)">
<path d="M952.985 20.7273V28H952.105V21.6506H952.062L950.287 22.8295V21.9347L952.105 20.7273H952.985Z" fill="white"/>
</g>
</g>
<defs>
<filter id="filter0_d_0_357" x="-6" y="-3" width="1292" height="76" filterUnits="userSpaceOnUse" color-interpolation-filters="sRGB">
<feFlood flood-opacity="0" result="BackgroundImageFix"/>
<feColorMatrix in="SourceAlpha" type="matrix" values="0 0 0 0 0 0 0 0 0 0 0 0 0 0 0 0 0 0 127 0" result="hardAlpha"/>
<feOffset dy="3"/>
<feGaussianBlur stdDeviation="3"/>
<feColorMatrix type="matrix" values="0 0 0 0 0 0 0 0 0 0 0 0 0 0 0 0 0 0 0.160784 0"/>
<feBlend mode="normal" in2="BackgroundImageFix" result="effect1_dropShadow_0_357"/>
<feBlend mode="normal" in="SourceGraphic" in2="effect1_dropShadow_0_357" result="shape"/>
</filter>
<clipPath id="clip0_0_357">
<rect width="109" height="39.9999" fill="white" transform="translate(176 16)"/>
</clipPath>
<clipPath id="clip1_0_357">
<rect width="160" height="48" fill="white" transform="translate(592 8)"/>
</clipPath>
<clipPath id="clip2_0_357">
<rect width="160" height="48" fill="white" transform="translate(752 8)"/>
</clipPath>
<clipPath id="clip3_0_357">
<rect width="23.0002" height="30.0003" fill="white" transform="translate(764.5 17)"/>
</clipPath>
<clipPath id="clip4_0_357">
<rect width="160" height="48" fill="white" transform="translate(912 8)"/>
</clipPath>
<clipPath id="clip5_0_357">
<rect width="16" height="14.5" fill="white" transform="translate(944 18)"/>
</clipPath>
</defs>
</svg>
